<svg width="25" height="25" viewBox="0 0 25 25" fill="none" xmlns="http://www.w3.org/2000/svg">
<g id="Dumpster">
<path id="Vector 4" d="M21 4H4C3.44772 4 3 4.44772 3 5C3 5.55228 3.44771 6 4 6H21C21.5523 6 22 5.55228 22 5C22 4.44772 21.5523 4 21 4Z" stroke="#000" stroke-width="0.5" stroke-linejoin="bevel"/>
<path id="Vector 12" d="M7.98218 21.0188L7.51919 8.51815C7.50871 8.23514 7.7353 8 8.01851 8C8.28726 8 8.50787 8.21259 8.51782 8.48116L8.98081 20.9818C8.99129 21.2649 8.7647 21.5 8.48149 21.5C8.21274 21.5 7.99213 21.2874 7.98218 21.0188Z" stroke="#111" stroke-width="0.5"/>
<path id="Vector 13" d="M17.0178 21.0188L17.4808 8.51815C17.4913 8.23514 17.2647 8 16.9815 8C16.7127 8 16.4921 8.21259 16.4822 8.48116L16.0192 20.9818C16.0087 21.2649 16.2353 21.5 16.5185 21.5C16.7873 21.5 17.0079 21.2874 17.0178 21.0188Z" stroke="#111" stroke-width="0.5"/>
<path id="Vector 14" d="M12 8.1V21.6C12 21.8761 12.2239 22.1 12.5 22.1C12.7761 22.1 13 21.8761 13 21.6V8.1C13 7.82386 12.7761 7.6 12.5 7.6C12.2239 7.6 12 7.82386 12 8.1Z" stroke="#111" stroke-width="0.5"/>
<path id="Vector 15" d="M5 6L5.91896 21.3757C5.97113 22.2485 6.3449 23.071 6.96808 23.6844V23.6844C7.62937 24.3352 8.52003 24.7 9.44788 24.7H15.5521C16.48 24.7 17.3706 24.3352 18.0319 23.6844V23.6844C18.6551 23.071 19.0289 22.2485 19.081 21.3757L20 6" stroke="#000" stroke-width="0.5"/>
<g id="pokrywa">
<path id="pokrywka" d="M18.01 2H6.99005C5.89098 2 5 2.89098 5 3.99005C5 3.99555 5.00446 4 5.00995 4H19.99C19.9955 4 20 3.99555 20 3.99005C20 2.89098 19.109 2 18.01 2Z" stroke="#000" stroke-width="0.5"/>
<path id="uchwyt" d="M10 1.8V1.8C10 0.971573 10.6716 0.3 11.5 0.3H13.5C14.3284 0.3 15 0.971573 15 1.8V1.8" stroke="#000" stroke-width="0.5" stroke-linejoin="bevel"/>
</g>
</g>
</svg>
