<svg width="25" height="25" viewBox="0 0 25 25" fill="none" xmlns="http://www.w3.org/2000/svg">
<path d="M14.5 11.5C14.8333 11.6667 15.6 11.8 16 11" stroke="#bbb" stroke-width="0.4" stroke-linecap="round"/>
<path d="M15 12C13.125 12.5 10.875 12.5 9 12" stroke="#bbb" stroke-width="0.5" stroke-linecap="round"/>
<path d="M10 0.5C11 1 13 1 14 0.5" stroke="#bbb" stroke-width="0.5" stroke-linecap="round"/>
<path d="M10.2485 0.472392C10.2332 0.335165 10.1096 0.236282 9.97239 0.251529C9.83517 0.266776 9.73628 0.390381 9.75153 0.527608L10.2485 0.472392ZM14.7538 12.0434C14.7778 12.1794 14.9075 12.2702 15.0434 12.2462C15.1794 12.2222 15.2702 12.0925 15.2462 11.9566L14.7538 12.0434ZM9.75153 0.527608C9.88013 1.68502 10.1717 2.47006 10.5669 3.12862C10.9534 3.77283 11.4452 4.30046 11.9298 4.90617C12.9022 6.12174 14.0107 7.83248 14.7538 12.0434L15.2462 11.9566C14.4893 7.66752 13.3478 5.87826 12.3202 4.59383C11.8048 3.94954 11.3591 3.47717 10.9956 2.87138C10.6408 2.27994 10.3699 1.56498 10.2485 0.472392L9.75153 0.527608Z" fill="#bbb"/>
<path d="M10 0.5C9.16667 0.666667 7.4 1 7 1" stroke="#bbb" stroke-width="0.5" stroke-linecap="round"/>
<path d="M14 0.5C14.8333 0.666667 16.6 1 17 1" stroke="#bbb" stroke-width="0.5" stroke-linecap="round"/>
<path d="M14 0.5C13.8333 1.33333 13.2 2.9 12 4.5" stroke="#bbb" stroke-width="0.5"/>
<path d="M7 1C5.5 3.28571 2.5 15.2857 4.5 17" stroke="#bbb" stroke-width="0.5"/>
<path d="M4.49587 16.9989L5.73371 17.1729" stroke="#bbb" stroke-width="0.5" stroke-linecap="round"/>
<path d="M7 1C7.33333 1.5 8 2.9 8 4.5" stroke="#bbb" stroke-width="0.5" stroke-linecap="round"/>
<path d="M17 1C16.6667 1.5 16 2.9 16 4.5" stroke="#bbb" stroke-width="0.5" stroke-linecap="round"/>
<path d="M8 4.5C6.5 8.5 8.5 7 9 12" stroke="#bbb" stroke-width="0.5" stroke-linecap="round"/>
<path d="M16 4.5C17.5 8.5 15.5 7 15 12" stroke="#bbb" stroke-width="0.5" stroke-linecap="round"/>
<path d="M5.75542 17.1688C7.30084 16.2248 7.69299 11.3618 8.03805 8.42549" stroke="#bbb" stroke-width="0.5" stroke-linecap="round"/>
<path d="M17.0451 1C18.5451 3.28571 21.5451 15.2857 19.5451 17" stroke="#bbb" stroke-width="0.5" stroke-linecap="round"/>
<path d="M19.5493 16.9989L18.3114 17.1729" stroke="#bbb" stroke-width="0.5" stroke-linecap="round"/>
<path d="M18.2897 17.1688C16.7443 16.2248 16.3521 11.3618 16.0071 8.42549" stroke="#bbb" stroke-width="0.5" stroke-linecap="round"/>
<path d="M9 12C8.5 12.5 6 18 5.5 24" stroke="#bbb" stroke-width="0.5" stroke-linecap="round"/>
<path d="M15.05 12C15.55 12.5 18.05 18 18.55 24" stroke="#bbb" stroke-width="0.5" stroke-linecap="round"/>
<path d="M5.5 24C7.5 23.5 7.5 24 9.5 24.5" stroke="#bbb" stroke-width="0.5" stroke-linecap="round"/>
<path d="M9.5 24.5C10.2407 24.6667 12.0778 24.9 13.5 24.5" stroke="#bbb" stroke-width="0.5" stroke-linecap="round"/>
<path d="M13.5 24.5C15.3182 24 16.6818 23.5 18.5 24" stroke="#bbb" stroke-width="0.5" stroke-linecap="round"/>
<path d="M9.1 11.5C11.0167 12 13.8917 11.5 14.85 11.5" stroke="#bbb" stroke-width="0.5" stroke-linecap="round"/>
<path d="M14.8723 11.6521C14.7827 11.2904 14.4083 10.5231 13.6277 10.3479" stroke="#bbb" stroke-width="0.5" stroke-linecap="round"/>
<path d="M13.5811 10.4303C13.556 10.5951 13.6884 11.0536 14.4189 11.5697" stroke="#bbb" stroke-width="0.4" stroke-linecap="round"/>
<path d="M14.5 11.5C14.8333 11.1667 15.6 10.6 16 11" stroke="#bbb" stroke-width="0.5" stroke-linecap="round"/>
<path d="M14.6394 11.5056C13.9817 13.4594 15.0183 13.0406 14.3606 14.9944" stroke="#bbb" stroke-width="0.4" stroke-linecap="round"/>
<path d="M14.8615 12.0348C15.8287 13.8553 14.7377 13.6111 15.705 15.4316" stroke="#bbb" stroke-width="0.4" stroke-linecap="round"/>
<line x1="4.86565" y1="16.8587" x2="4.83492" y2="16.3597" stroke="#bbb" stroke-width="0.3" stroke-linecap="round"/>
<line x1="18.6278" y1="16.8884" x2="18.5175" y2="16.6094" stroke="#bbb" stroke-width="0.3" stroke-linecap="round"/>
<line x1="19.2145" y1="16.8485" x2="19.2215" y2="16.4486" stroke="#bbb" stroke-width="0.3" stroke-linecap="round"/>
<line x1="5.34203" y1="17.1194" x2="5.44155" y2="16.732" stroke="#bbb" stroke-width="0.3" stroke-linecap="round"/>
</svg>
