<svg width="25" height="25" viewBox="0 0 25 25" fill="none" xmlns="http://www.w3.org/2000/svg">
<g clip-path="url(#clip0_145_120)">
<path d="M14.9497 3.90534C15.3619 3.53362 15.4379 2.81556 15.6327 2.62315C14.2594 2.69532 13.8104 3.04319 13.6518 4.2788C14.2319 4.30763 14.5375 4.27707 14.9497 3.90534Z" fill="#5A6B47"/>
<path d="M13.1437 7.40683C13.1439 7.54514 13.154 7.79923 13.1676 8.07901C13.1977 8.69968 13.3656 9.08566 13.9708 9.22646C14.1398 9.24449 14.2332 9.22076 14.2823 9.06218C14.3313 8.9036 14.3838 8.57372 14.1809 8.19133C13.978 7.80895 13.2863 7.60617 13.1437 7.40683Z" fill="#5A6B47"/>
<path d="M14.2823 9.06218C14.2332 9.22076 14.1398 9.24449 13.9708 9.22646C14.103 9.24357 14.1693 9.28575 14.2389 9.48315L14.3428 9.42839C14.2484 9.35241 14.2332 9.22076 14.2823 9.06218Z" fill="#5A6B47"/>
<path d="M16.3691 9.47616C16.6665 8.10153 18.3385 7.02429 18.6359 5.64966" stroke="#5A6B47" stroke-width="0.13" stroke-linecap="round" stroke-linejoin="bevel"/>
<path d="M17.3344 4.77997C17.4024 5.03922 17.5081 5.24696 17.6777 5.53006C17.821 5.76943 17.9822 6.06129 17.9213 6.33359C17.8658 6.5816 17.6374 6.75393 17.6673 7.0063C17.6864 7.16806 17.7339 7.33025 17.7093 7.37176C17.6622 7.45142 17.6082 7.41937 17.6082 7.41937C17.6056 7.24269 17.5076 7.01085 17.3482 6.86694C16.5718 6.13997 16.4882 5.70371 17.3344 4.77997Z" fill="#5A6B47"/>
<path d="M19.112 6.04124C19.3427 5.92537 19.6027 5.81011 19.7142 5.57724C20.0226 4.93288 19.6749 3.55471 19.6253 3.85637C19.566 4.21691 18.7788 4.78964 18.4575 5.16985C18.1362 5.55005 18.3395 6.32821 18.3964 6.34939C18.4332 6.36309 18.8152 6.19029 19.112 6.04124Z" fill="#5A6B47"/>
<path d="M11.7827 9.26959C11.6741 8.53613 12.6246 7.72254 12.1924 6.32142" stroke="#5A6B47" stroke-width="0.13" stroke-linecap="round"/>
<path d="M8.69157 2.88366C8.74486 3.03891 8.85161 3.31565 8.97306 3.62246C9.26213 4.3527 9.65034 4.70366 10.4318 4.62483C10.6361 4.57852 10.7357 4.51358 10.7297 4.30897C10.7238 4.10436 10.6038 3.75113 10.2146 3.38577C9.8254 3.02041 8.93747 3.05944 8.69157 2.88366Z" fill="#5A6B47"/>
<path d="M10.7297 4.30897C10.7357 4.51358 10.6361 4.57852 10.4318 4.62483C10.5928 4.5921 10.5316 4.61414 10.6915 4.81677L10.7044 4.64538C10.564 4.59432 10.7357 4.51358 10.7297 4.30897Z" fill="#5A6B47"/>
<path d="M10.4405 0.120882C10.391 0.28026 10.3113 0.576565 10.2263 0.903687C10.0377 1.62939 10.0923 2.13437 10.7387 2.51424C10.9269 2.59577 11.043 2.60204 11.1566 2.43704C11.2701 2.27203 11.4492 1.91093 11.353 1.39752C11.2568 0.8841 10.5331 0.401781 10.4405 0.120882Z" fill="#5A6B47"/>
<path d="M11.1566 2.43704C11.043 2.60204 10.9269 2.59577 10.7387 2.51424C10.8848 2.58148 10.9461 2.65392 10.9552 2.90632L11.0945 2.88059C11.0131 2.75914 11.043 2.60204 11.1566 2.43704Z" fill="#5A6B47"/>
<path d="M11.6584 9.55096C8.90177 6.62697 11.1719 4.88796 11.0153 2.57879" stroke="#5A6B47" stroke-width="0.14" stroke-linecap="round"/>
<path d="M7.21067 8.91877C7.14815 8.42802 7.77723 7.87575 7.51127 6.93993" stroke="#5A6B47" stroke-width="0.13" stroke-linecap="round"/>
<path d="M4.27404 6.92783C4.3531 7.02954 4.50159 7.20607 4.66938 7.40184C5.08775 7.88999 5.47269 8.05338 6.06765 7.76958C6.21496 7.67656 6.27605 7.59881 6.21975 7.44395C6.16345 7.28908 5.98093 7.05263 5.58585 6.88278C5.19077 6.71293 4.50975 6.99302 4.27404 6.92783Z" fill="#5A6B47"/>
<path d="M6.21975 7.44395C6.27605 7.59881 6.21496 7.67656 6.06765 7.76958C6.18472 7.69914 6.14261 7.73327 6.31818 7.84324L6.28496 7.70847C6.16283 7.70897 6.27605 7.59881 6.21975 7.44395Z" fill="#5A6B47"/>
<path d="M6.89551 6.29759C6.78904 5.9183 7.01765 5.44521 6.97372 5.25556C7.77412 5.79529 7.91189 6.17305 7.53535 6.99718C7.17459 6.80601 7.00198 6.67689 6.89551 6.29759Z" fill="#5A6B47"/>
<path d="M4.62149 4.38795C4.62973 4.51981 4.65382 4.75843 4.68287 5.02268C4.75131 5.64532 4.9309 6.00664 5.54584 6.08668C5.71359 6.08787 5.80435 6.05558 5.8433 5.89576C5.88225 5.73594 5.91433 5.40828 5.69138 5.05413C5.46843 4.69998 4.77406 4.56898 4.62149 4.38795Z" fill="#5A6B47"/>
<path d="M5.8433 5.89576C5.80435 6.05558 5.71359 6.08787 5.54584 6.08668C5.67726 6.09055 5.7452 6.12534 5.82561 6.31159L5.92476 6.24795C5.82716 6.18283 5.80435 6.05558 5.8433 5.89576Z" fill="#5A6B47"/>
<path d="M8.00054 9.2858C5.78922 8.66584 6.44244 7.10922 5.71331 6.00574" stroke="#5A6B47" stroke-width="0.13" stroke-linecap="round"/>
<path d="M6.61281 9.44943H17.3872C17.7438 9.44943 18.0511 9.70051 18.1221 10.05L20.5121 21.8008C20.7642 23.0402 19.817 24.1994 18.5523 24.1994H5.44773C4.18298 24.1994 3.23578 23.0402 3.48785 21.8008L5.87786 10.05C5.94893 9.70051 6.25622 9.44943 6.61281 9.44943Z" stroke="black" stroke-width="0.5"/>
<path d="M9 10.7494V7.98053C9 6.75382 9.74685 5.65069 10.8858 5.1951V5.1951C11.6011 4.90901 12.3989 4.90901 13.1142 5.1951V5.1951C14.2531 5.65069 15 6.75382 15 7.98053V10.7494" stroke="black" stroke-width="0.5" stroke-linecap="round"/>
<circle cx="9" cy="11.3994" r="0.75" fill="black"/>
<circle cx="15" cy="11.3994" r="0.75" fill="black"/>
<path d="M11.3937 5.34275C11.2848 4.79847 11.6525 4.17703 11.611 3.90637C12.6698 4.78398 12.8224 5.33109 12.2121 6.41711C11.7295 6.09399 11.5025 5.88703 11.3937 5.34275Z" fill="#5A6B47"/>
<path d="M12.3202 6.85643C12.8376 6.3253 12.5431 5.1093 13.7136 4.2262" stroke="#5A6B47" stroke-width="0.13" stroke-linecap="round"/>
</g>
<defs>
<clipPath id="clip0_145_120">
<rect width="24.5" height="24.5" fill="white"/>
</clipPath>
</defs>
</svg>
