<svg width="120" height="21" viewBox="0 0 120 21" fill="none" xmlns="http://www.w3.org/2000/svg">
<g clip-path="url(#clip0_124_71)">
<path d="M16.49 -1.43051e-06V21H15.98L0.59 1.11V21H-0.00999996V-1.43051e-06H0.5L15.89 19.89V-1.43051e-06H16.49ZM37.2322 14.67H24.3922L21.4522 21H20.7622L30.5122 -1.43051e-06H31.1122L40.8622 21H40.1722L37.2322 14.67ZM36.9622 14.1L30.8122 0.809999L24.6622 14.1H36.9622ZM60.0465 21L54.7065 13.59C54.0065 13.73 53.1865 13.8 52.2465 13.8H45.7365V21H45.1365V-1.43051e-06H52.2465C54.8265 -1.43051e-06 56.8465 0.609998 58.3065 1.83C59.7665 3.03 60.4965 4.72 60.4965 6.9C60.4965 8.58 60.0465 9.99 59.1465 11.13C58.2465 12.25 56.9765 13.02 55.3365 13.44L60.7965 21H60.0465ZM52.3065 13.23C54.7465 13.23 56.6165 12.68 57.9165 11.58C59.2365 10.48 59.8965 8.92 59.8965 6.9C59.8965 4.88 59.2365 3.32 57.9165 2.22C56.6165 1.12 54.7465 0.569998 52.3065 0.569998H45.7365V13.23H52.3065ZM79.3611 14.67H66.5211L63.5811 21H62.8911L72.6411 -1.43051e-06H73.2411L82.9911 21H82.3011L79.3611 14.67ZM79.0911 14.1L72.9411 0.809999L66.7911 14.1H79.0911ZM102.021 -1.43051e-06L92.5707 21H91.9707L82.5207 -1.43051e-06H83.2107L92.2707 20.19L101.331 -1.43051e-06H102.021ZM119.849 20.43V21H105.869V-1.43051e-06H119.399V0.569998H106.469V10.05H118.049V10.62H106.469V20.43H119.849Z" fill="black"/>
<path d="M24.2 14.5H37.5" stroke="white"/>
<path d="M24.8753 12.9781L23.4664 16.0219" stroke="black" stroke-width="0.55"/>
<path d="M36.7507 12.9784L38.1608 16.0216" stroke="black" stroke-width="0.55"/>
<path d="M66.25 14.5216H79.55" stroke="white"/>
<path d="M66.9995 13.0025L65.5786 16.0408" stroke="black" stroke-width="0.55"/>
<path d="M78.8907 13L80.3008 16.0433" stroke="black" stroke-width="0.55"/>
<path d="M36.1029 14.2084C35.03 12.8058 32.5546 12.4761 31.4817 11.0736" stroke="black" stroke-width="0.13" stroke-linecap="round" stroke-linejoin="bevel"/>
<path d="M36.6602 8.31387C37.1469 7.52033 38.7177 7.50349 39.4313 5.80647" stroke="black" stroke-width="0.13" stroke-linecap="round"/>
<path d="M32.5556 9.39C32.6169 9.72091 32.6079 10.0134 32.5667 10.4257C32.5318 10.7743 32.5047 11.192 32.7195 11.4688C32.9152 11.7208 33.2668 11.7944 33.3678 12.0971C33.4326 12.2911 33.4654 12.5007 33.5155 12.5348C33.6116 12.6001 33.6558 12.5348 33.6558 12.5348C33.5642 12.3327 33.5516 12.0169 33.6558 11.7682C34.1491 10.5272 34.0107 9.98693 32.5556 9.39Z" fill="black"/>
<path d="M31.2723 11.8936C31.0143 11.8847 30.7354 11.892 30.5196 11.7504C29.7712 11.2593 29.3945 9.36097 29.6203 9.68906C29.8805 10.0669 31.081 10.2966 31.6493 10.5567C32.2176 10.8168 32.4028 11.8095 32.3495 11.864C32.3122 11.9021 31.6995 11.9083 31.2723 11.8936Z" fill="black"/>
<path d="M34.2696 15.2487C34.3639 15.441 34.5506 15.7876 34.7596 16.1677C35.2231 17.0108 35.719 17.4337 36.6567 17.2183C36.904 17.1286 37.0179 17.0321 36.9784 16.7781C36.9389 16.5242 36.7877 16.0296 36.2456 15.6355C35.7035 15.2413 34.6035 15.4292 34.2696 15.2487Z" fill="black"/>
<path d="M36.9784 16.7781C37.0179 17.0321 36.904 17.1286 36.6567 17.2183C36.8523 17.1523 36.9732 17.1659 37.2041 17.3933L37.3114 17.2466C37.1285 17.205 37.0179 17.0321 36.9784 16.7781Z" fill="black"/>
<path d="M34.5301 3.84127C34.6091 4.0316 34.7647 4.36995 34.9411 4.7448C35.361 5.63703 35.8752 6.04614 36.8481 5.88566C37.1005 5.81149 37.2202 5.72226 37.1966 5.46634C37.1729 5.21042 36.9947 4.77727 36.4782 4.35018C35.9616 3.92309 34.8521 4.04211 34.5301 3.84127Z" fill="black"/>
<path d="M37.1966 5.46634C37.2202 5.72226 37.1005 5.81149 36.8481 5.88566C37.0474 5.83192 36.9723 5.86438 37.1887 6.10566L37.1913 5.88988C37.0114 5.83698 37.2202 5.72226 37.1966 5.46634Z" fill="black"/>
<path d="M38.8294 4.32052C38.8929 3.62652 39.5576 3.01001 39.6045 2.66944C40.5651 4.10422 40.5531 4.81727 39.4304 5.90621C38.965 5.34476 38.7658 5.01452 38.8294 4.32052Z" fill="black"/>
<path d="M36.1462 -0.281749C36.1134 -0.074785 36.0678 0.307769 36.0212 0.729567C35.9178 1.66531 36.0768 2.2829 36.9486 2.63823C37.1971 2.70558 37.3425 2.69242 37.4538 2.46691C37.5651 2.24139 37.7224 1.76041 37.5103 1.13983C37.2981 0.519262 36.3119 0.050567 36.1462 -0.281749Z" fill="black"/>
<path d="M37.4538 2.46691C37.3425 2.69242 37.1971 2.70558 36.9486 2.63823C37.1423 2.69541 37.2314 2.77437 37.2883 3.08634L37.4567 3.02923C37.3337 2.893 37.3425 2.69242 37.4538 2.46691Z" fill="black"/>
<path d="M40.2098 20.9176C32.3058 13.526 38.1125 8.46776 37.3004 2.28818" stroke="black" stroke-width="0.17" stroke-linecap="round"/>
</g>
<defs>
<clipPath id="clip0_124_71">
<rect width="120" height="21" fill="white"/>
</clipPath>
</defs>
</svg>
