<svg width="4" height="6" viewBox="0 0 4 6" fill="none" xmlns="http://www.w3.org/2000/svg">
<g id="PlantIcon">
<path id="Vector 37" d="M1.24074 2.24C1.26265 2.35831 1.25946 2.46287 1.24471 2.61028C1.23223 2.73491 1.22256 2.88427 1.29936 2.98322C1.36931 3.07334 1.49504 3.09966 1.53115 3.20787C1.5543 3.27723 1.56602 3.35218 1.58393 3.36435C1.6183 3.38769 1.63411 3.36435 1.63411 3.36435C1.60136 3.29211 1.59685 3.1792 1.63411 3.09027C1.81047 2.64658 1.76099 2.45342 1.24074 2.24Z" fill="#5a6b47"/>
<path id="Vector 38" d="M0.915193 3.05452C0.658378 3.0281 0.372414 2.96367 0.274386 2.72483C0.165284 2.45902 0.152348 2.10415 0.199192 2.19601C0.270675 2.33619 0.668604 2.46821 0.850186 2.58218C1.03177 2.69615 1.05016 3.04203 1.02959 3.05816C1.02309 3.06326 0.97705 3.06088 0.915193 3.05452Z" fill="#5a6b47"/>
<g id="Vector 39">
<path d="M1.47736 3.85318C1.49986 3.91367 1.54546 4.02323 1.59672 4.14348C1.71044 4.41024 1.84647 4.55195 2.13416 4.51551C2.21102 4.49602 2.24807 4.4705 2.24384 4.39315C2.23962 4.3158 2.20912 4.16294 2.05837 4.02847C1.90761 3.89399 1.57208 3.91731 1.47736 3.85318Z" fill="#5a6b47"/>
<path d="M2.24384 4.39315C2.24807 4.4705 2.21102 4.49602 2.13416 4.51551C2.19478 4.50158 2.23064 4.50929 2.29308 4.58441L2.29206 4.54095C2.23846 4.52298 2.24807 4.4705 2.24384 4.39315Z" fill="#5a6b47"/>
</g>
<path id="Vector 40" d="M3.08039 1.85922C3.1132 1.629 3.34504 1.43466 3.36636 1.32193C3.66248 1.81619 3.64657 2.05363 3.25415 2.39775C3.10845 2.20285 3.04758 2.08945 3.08039 1.85922Z" fill="#5a6b47"/>
<g id="Vector 41">
<path d="M2.10546 0.102823C2.09603 0.175982 2.08386 0.311058 2.07174 0.459954C2.04483 0.790272 2.10703 1.00598 2.4174 1.12219C2.50551 1.14337 2.55656 1.13727 2.59344 1.05679C2.63032 0.976304 2.6808 0.805459 2.59986 0.589239C2.51892 0.373019 2.16714 0.218081 2.10546 0.102823Z" fill="#5a6b47"/>
<path d="M2.59344 1.05679C2.55656 1.13727 2.50551 1.14337 2.4174 1.12219C2.48613 1.14035 2.51829 1.16723 2.54148 1.27643L2.60016 1.25463C2.5555 1.20794 2.55656 1.13727 2.59344 1.05679Z" fill="#5a6b47"/>
</g>
<g id="Vector 42">
<path d="M1.69772 1.30007C1.71741 1.37593 1.75895 1.51392 1.806 1.66551C1.91039 2.0018 2.0572 2.18981 2.40922 2.18136C2.50448 2.16732 2.55239 2.14107 2.55685 2.04712C2.56131 1.95316 2.54336 1.76473 2.37788 1.58365C2.2124 1.40258 1.8042 1.38925 1.69772 1.30007Z" fill="#5a6b47"/>
<path d="M2.55685 2.04712C2.55239 2.14107 2.50448 2.16732 2.40922 2.18136C2.48417 2.17202 2.52653 2.18578 2.59267 2.28424L2.59462 2.185C2.53209 2.15667 2.55239 2.14107 2.55685 2.04712Z" fill="#5a6b47"/>
</g>
<path id="Vector 43" d="M2.53364 5.08988C1.4906 2.99959 2.95114 3.18546 2.53364 1.08988" stroke="#5a6b47" stroke-width="0.07" stroke-linecap="round"/>
<path id="Vector 44" d="M2.15444 3.92507C2.10281 3.34263 1.13965 3.31152 0.856445 2.86313" stroke="#5a6b47" stroke-width="0.07" stroke-linecap="round"/>
<path id="Vector 45" d="M2.35848 2.9544C2.67104 2.589 3.07594 2.6955 3.28286 2.32549" stroke="#5a6b47" stroke-width="0.07" stroke-linecap="round"/>
</g>
</svg>
