<svg width="25" height="25" viewBox="0 0 25 25" fill="none" xmlns="http://www.w3.org/2000/svg">
<g id="SKIRT" clip-path="url(#clip0_43_54)">
<g id="Skirt">
<path id="Vector 3" d="M7.38344 1.70605C5.11215 8.04281 6.02067 12.4298 7.38344 24.1284" stroke="#bbb" stroke-width="0.5" stroke-linecap="round"/>
<path id="Vector 6" d="M18.3137 1.70605C20.585 8.04281 19.6765 12.4298 18.3137 24.1284" stroke="#bbb" stroke-width="0.5" stroke-linecap="round"/>
<path id="Vector 2" d="M7.38344 1.70605C12.0558 2.19349 13.6133 2.19349 18.2856 1.70605" stroke="#bbb" stroke-width="0.5" stroke-linecap="round"/>
<line id="Line 1" x1="7.44391" y1="0.264078" x2="7.36803" y2="1.71186" stroke="#bbb" stroke-width="0.5" stroke-linecap="round"/>
<path id="Line 3" d="M18.2348 0.256143L18.3114 1.71647" stroke="#bbb" stroke-width="0.5" stroke-linecap="round"/>
<path id="Vector 1" d="M7.46233 0.243722H18.1861" stroke="#bbb" stroke-width="0.5" stroke-linecap="round"/>
<path id="Vector 7" d="M7.38344 24.1284C8.35685 24.4534 11.0824 25.0058 14.1973 24.6159" stroke="#bbb" stroke-width="0.5" stroke-linecap="round" stroke-linejoin="round"/>
<path id="Vector 9" d="M14.1973 24.6159C14.5002 23.8035 15.1967 21.1063 15.5601 16.8168" stroke="#bbb" stroke-width="0.5" stroke-linecap="round"/>
<path id="Vector 10" d="M15.5601 16.8168C15.7115 18.2791 16.0143 21.8862 16.0143 24.6159" stroke="#bbb" stroke-width="0.5" stroke-linecap="round"/>
<path id="Vector 11" d="M16.0143 24.6159C16.4725 24.6159 17.5722 24.5184 18.3053 24.1284" stroke="#bbb" stroke-width="0.5" stroke-linecap="round"/>
<path id="Vector 12" d="M12.0226 0.389955C12.0226 0.389955 11.6327 1.07237 12.0226 1.85228" stroke="#bbb" stroke-width="0.2" stroke-linecap="round"/>
<path id="Vector 15" d="M11.7302 0.389955C11.7302 0.389955 11.3402 1.07237 11.7302 1.85228" stroke="#bbb" stroke-width="0.2" stroke-linecap="round"/>
<path id="Vector 16" d="M13.9182 0.389955C13.9182 0.389955 14.3082 1.07237 13.9182 1.85228" stroke="#bbb" stroke-width="0.2" stroke-linecap="round"/>
<path id="Vector 17" d="M16.5504 0.389955C16.5504 0.389955 16.9404 1.07238 16.5504 1.85228" stroke="#bbb" stroke-width="0.2" stroke-linecap="round"/>
<path id="Vector 18" d="M9.09797 0.389955C9.09797 0.389955 8.70802 1.07237 9.09797 1.85228" stroke="#bbb" stroke-width="0.2" stroke-linecap="round"/>
<path id="Vector 13" d="M13.6258 0.389955C13.6258 0.389955 14.0157 1.07237 13.6258 1.85228" stroke="#bbb" stroke-width="0.2" stroke-linecap="round"/>
<path id="Vector 14" d="M12.7387 1.16986C13.0046 1.16986 13.3978 1.16986 13.7136 1.16986" stroke="#bbb" stroke-width="0.2" stroke-linecap="round"/>
</g>
</g>
<defs>
<clipPath id="clip0_43_54">
<rect width="25" height="25" fill="white"/>
</clipPath>
</defs>
</svg>
